<?xml version="1.0" standalone="no"?><!DOCTYPE svg PUBLIC "-//W3C//DTD SVG 1.1//EN" "http://www.w3.org/Graphics/SVG/1.1/DTD/svg11.dtd"><svg t="1545305817742" class="icon" style="" viewBox="0 0 1024 1024" version="1.1" xmlns="http://www.w3.org/2000/svg" p-id="2876" xmlns:xlink="http://www.w3.org/1999/xlink" width="200" height="200"><defs><style type="text/css"></style></defs><path d="M959 408.2L511 731.6 63 408.2 511 84.8l448 323.4z" fill="#5B79FB" p-id="2877"></path><path d="M185.4 141.6h651.2V937H185.4V141.6z" fill="#E5ECFF" p-id="2878"></path><path d="M333.1 224.5h355.7v73.9H333.1v-73.9z" fill="#FF7E71" p-id="2879"></path><path d="M256.4 360.5h509.3v37H256.4v-37z m0 62.7h509.3v37H256.4v-37z m0 62.7h509.3v37H256.4v-37z m0 62.7h509.3v37H256.4v-37z" fill="#FFFFFF" p-id="2880"></path><path d="M63 937h896V408.2L511 731.6 63 408.2V937z" fill="#5B79FB" p-id="2881"></path><path d="M63 937h896L592.7 672.6H429.3L63 937z" fill="#83A4FF" p-id="2882"></path></svg>