<?xml version="1.0" standalone="no"?><!DOCTYPE svg PUBLIC "-//W3C//DTD SVG 1.1//EN" "http://www.w3.org/Graphics/SVG/1.1/DTD/svg11.dtd"><svg t="1546960958242" class="icon" style="" viewBox="0 0 1024 1024" version="1.1" xmlns="http://www.w3.org/2000/svg" p-id="2548" xmlns:xlink="http://www.w3.org/1999/xlink" width="16" height="16"><defs><style type="text/css"></style></defs><path d="M262.4 57.6H1000v52.8H262.4z" fill="" p-id="2549"></path><path d="M262.4 479.2H1000v52.8H262.4z" fill="" p-id="2550"></path><path d="M262.4 900.8H1000v52.8H262.4z" fill="" p-id="2551"></path><path d="M15.873457 907.13475l66.18404-66.18635 66.186349 66.184039L82.059807 973.318789z" fill="" p-id="2552"></path><path d="M76 110.4m-52.8 0a52.8 52.8 0 1 0 105.6 0 52.8 52.8 0 1 0-105.6 0Z" fill="" p-id="2553"></path><path d="M76 479.2m-52.8 0a52.8 52.8 0 1 0 105.6 0 52.8 52.8 0 1 0-105.6 0Z" fill="" p-id="2554"></path></svg>