<?xml version="1.0" standalone="no"?><!DOCTYPE svg PUBLIC "-//W3C//DTD SVG 1.1//EN" "http://www.w3.org/Graphics/SVG/1.1/DTD/svg11.dtd"><svg t="1545304397701" class="icon" style="" viewBox="0 0 1143 1024" version="1.1" xmlns="http://www.w3.org/2000/svg" p-id="6695" xmlns:xlink="http://www.w3.org/1999/xlink" width="223.2421875" height="200"><defs><style type="text/css"></style></defs><path d="M1006.933333 153.6c45.511111-28.444444 85.333333-79.644444 102.4-136.533333-45.511111 28.444444-96.711111 51.2-147.911111 56.888889-39.822222-45.511111-102.4-73.955556-170.666666-73.955556-130.844444 0-233.244444 108.088889-233.244445 244.622222 0 17.066667 0 39.822222 5.688889 56.888889-193.422222-11.377778-364.088889-108.088889-483.555556-256-17.066667 34.133333-28.444444 79.644444-28.444444 125.155556 0 85.333333 34.133333 159.288889 96.711111 204.8-39.822222 0-108.088889-11.377778-108.088889-28.444445v5.688889c0 119.466667 85.333333 216.177778 193.422222 238.933333-17.066667 5.688889-39.822222 11.377778-56.888888 11.377778-17.066667 0-28.444444 0-45.511112-5.688889 28.444444 96.711111 113.777778 170.666667 216.177778 170.666667-79.644444 68.266667-182.044444 108.088889-290.133333 108.088889-17.066667 0-39.822222 0-56.888889-5.688889 102.4 68.266667 227.555556 108.088889 358.4 108.088889 426.666667 0 665.6-375.466667 665.6-699.733333v-34.133334c45.511111-34.133333 85.333333-79.644444 113.777778-125.155555-34.133333 17.066667-79.644444 28.444444-130.844445 34.133333z" fill="#1DA1F2" p-id="6696"></path></svg>