<?xml version="1.0" standalone="no"?><!DOCTYPE svg PUBLIC "-//W3C//DTD SVG 1.1//EN" "http://www.w3.org/Graphics/SVG/1.1/DTD/svg11.dtd"><svg t="1546961151002" class="icon" style="" viewBox="0 0 1024 1024" version="1.1" xmlns="http://www.w3.org/2000/svg" p-id="9714" xmlns:xlink="http://www.w3.org/1999/xlink" width="16" height="16"><defs><style type="text/css"></style></defs><path d="M512.1 830.6c-43.3 0-85.3-8.5-124.8-25.2-38.2-16.2-72.5-39.3-101.9-68.7-29.4-29.4-52.6-63.7-68.7-101.9-16.7-39.6-25.2-81.6-25.2-124.8h100c0 121.7 99 220.7 220.7 220.7 121.7 0 220.7-99 220.7-220.7h100c0 43.3-8.5 85.3-25.2 124.8-16.2 38.2-39.3 72.5-68.7 101.9-29.4 29.4-63.7 52.6-101.9 68.7-39.7 16.7-81.7 25.2-125 25.2z" fill="#555555" p-id="9715"></path><path d="M241.4 559.2c-27.6 0-50-22.4-50-50V113.9c0-27.6 22.4-50 50-50s50 22.4 50 50v395.4c0 27.5-22.4 49.9-50 49.9zM782.8 564.7c-27.6 0-50-22.4-50-50V113.8c0-27.6 22.4-50 50-50s50 22.4 50 50v400.9c0 27.6-22.4 50-50 50zM128.7 904.6h768.4v55H128.7z" fill="#555555" p-id="9716"></path></svg>