<?xml version="1.0" standalone="no"?><!DOCTYPE svg PUBLIC "-//W3C//DTD SVG 1.1//EN" "http://www.w3.org/Graphics/SVG/1.1/DTD/svg11.dtd"><svg t="1545304818402" class="icon" style="" viewBox="0 0 1024 1024" version="1.1" xmlns="http://www.w3.org/2000/svg" p-id="52390" xmlns:xlink="http://www.w3.org/1999/xlink" width="200" height="200"><defs><style type="text/css"></style></defs><path d="M511.9967776408702 366.3612220853148m-976.2381234780951 0a976.2381234780951 976.2381234780951 0 1 0 1952.4762488629126 1.2126596023639043e-13 976.2381234780951 976.2381234780951 0 1 0-1952.4762488629126-1.2126596023639043e-13Z" fill="#ffffff" p-id="52391"></path><path d="M325.59154535537766 762.9428509658065s-215.41045769355054 77.87916480663702-241.92251476195548 87.82118766364444-72.9081546726716 11.599024077432091-106.04822439000493 173.985368928711c64.62313691970367 9.942021562469135 1068.767270714785 0 1068.767269420247 0s-18.22703931543703-130.9032776489086-64.62313691970365-152.4443232888098-218.72446401801483-86.16418255960495-283.34760223225675-122.61826119047902-379.45380635433077 9.955277634370365-379.45380635433077 9.955277634370365" fill="#1296db" p-id="52392"></path><path d="M670.2350208164344 832.523743242113L363.14587277590124 832.5237432421129l13.256027886933316-278.376590803753 280.5770922666667 0z" fill="#EECAA8" p-id="52393"></path><path d="M729.6883065236543 350.8924725475557c-5.222875500088887-1.1930425874962953-10.843430568138269 5.090314781076544-15.575832702419753 12.619739024750611 0.8351299407012371-131.11537479932838-35.08870710866175-248.0467992677136-191.48332687865678-217.82305501234572-1.9088678810864195 0.3579126467950616-3.7647114745678993 0.8748981564049385-5.64706721185185 1.3521141557728393-3.035630109076543-0.7555935092938267-6.0447493688888905-1.5774673780938266-9.120147693669136-2.173988024572839C349.982636097738 114.36516222040495 314.84090599600995 233.80197521635563 316.37860515840003 366.4020248904693c-5.037290493471604-8.722466831170369-11.426696437254314-16.848411721323444-17.31237294332839-15.509552342913578-12.155777802745678 2.75725389368889-36.04314040193579 13.534404102320986-8.841770183743211 86.16418255960495 2.6246931746765423 4.414257703190124 7.595704603180248 36.30826054542222 9.252707118143212 42.11440191462716 1.5774673780938264 5.501251715476541 14.223718546646909 27.466490361679003 27.307418793402466 6.548477512059256 11.00250343095308 60.77888901372839 32.2121485678617 113.35229670589628 70.60160592908639 151.2777941396543 35.5659231080296 35.12847402982713 62.40938067942716 56.33811916673578 110.46248209319504 61.309129300701215 1.2460668751012345 0.13256071901234562 2.492133750202469 0.14581679091358027 3.724943258864196 0.238609294222222l0 1.2990898681679013c3.6454081219950614-0.09279250330864196 7.343839237056788-0.30488835919012347 11.04227164665679-0.702569221688888 48.05310270830617-4.971010133965429 74.89655898516544-26.180655270874066 110.4624833877333-61.3091305952395 38.111081145837026-37.66037599573334 59.267701995140726-89.75656639399506 70.33648449106173-149.97870168240985 12.553458665244442 17.14004400861234 24.338067749293817-3.367030612069133 25.849256062419748-8.669442543565433 1.6570038095012336-5.806140074666667 6.628013943466658-37.70014421143702 9.239451046241967-42.11440191462716 27.22788236199506-72.64303452918517 3.3272636909036994-83.40692866591604-8.815259334479014-86.17743863150613z" fill="#F4D9BE" p-id="52394"></path><path d="M545.9730131828936 161.45057426899757s-32.3181971430716 9.120147693669137-40.60321489603948 14.913031696434558-66.28014072920493-12.434154018133327-72.9081546726716-13.25602788693332-43.082091279802476-4.1491362651654295-47.23122754496789 4.971010133965429-44.739095089303696 72.08628080387157-51.36710903277032 115.16837208367406 2.4921337502024623 78.71429474733823-4.149137559703703 90.31332011930863c-6.628013943466661 11.599024077432095-5.80614007466667 55.51624529793577-5.80614007466667 55.516246592474026s-11.042271646656793-78.15754231656297-22.64129572408887-83.68530617584199c-13.256027886933323-6.323125584276542-37.01083106164938-280.8687245539554 88.92143645329385-308.2026541966222 5.806140074666667-14.091157827634568 8.285017752967898-16.570035505935795 13.256027886933323-15.748161637135794s34.79707352683456-0.8351299407012353 34.79707352683456-0.8351299407012353 19.062167961599993-23.198049449402472 38.94621108653826-19.88404312493827 51.36710903277034 15.748161637135793 59.65212678573824 15.748161637135793 27.3471857145679-10.777151503170373 39.76808495533827 0.8351299407012371 4.149136265165431 0 8.285017752967898-7.463143884167901 15.74816163713579 12.434154018133327 9.942020267930863 13.256027886933321 46.396098898804944-24.03317939010371 46.396098898804944 32.31819714307161c4.149136265165431-2.492133750202469 43.9172212205037-20.719171771101227 51.36710903277034 0-9.942021562469135 3.3140076190024685-12.43415401813333 10.777151503170371-12.43415401813333 10.777151503170371s49.15335279249383 18.50541553082469 56.89487289204935 79.2577924007506c8.828514111841972 48.05310270830617-7.396863524661694 205.4816922029826-7.396863524661694 205.4816922029826s-15.81444199664197 8.271761681066662-18.014943459555553 16.848411721323448c-0.7555935092938271 2.9428376057679007-3.6188959781925916 36.48058948013826-4.971010133965429 45.03072737659259-2.5849249589728402 16.304914067911106-3.857503977876544 10.48551792134321-3.857503977876544 10.48551792134321l-2.770509965590122-84.50717875010365s-8.285017752967898-104.39122187504199-26.51205577386664-136.70941901811358-41.42508747030124-34.79707352683456-41.4250887648395-34.79707352683456-79.50965647233579 12.39438580242963-86.13767041580243-5.832652218469138z" fill="#493D32" p-id="52395"></path><path d="M431.63976974538286 851.320791060227s86.37627971002466-49.23288792936293 167.1452591293629 1.723284169007411c-19.884041830399998 18.783791746212344-64.41104106382221 70.62811807288888-59.44002963531851 86.37627971002465 2.55841281517037 6.548477512059257 30.382817118182714 89.06725324420736 30.38281582364444 89.06725324420736l-113.77648971219752 0.6230327902814831s27.61230715259258-71.72836815707652 30.92631347705679-88.29840366301235-34.253577167960486-70.70765450429629-55.237869082548166-89.49144625050856z" fill="#13227a" p-id="52396"></path><path d="M380.2041605688888 699.4385525570367s-28.15999772444444 60.188063288888884-41.74483797333332 71.85052103111111c-2.9127020088888886 7.759436231111111-0.9670166755555556 115.52939235555556-16.509191964444444 161.1655987199999 0 0 111.16034048-99.03185123555554 184.4672113777778-103.87858545777777-35.91943509333333-28.15999772444444-114.56237567999996-83.51297763555553-126.21318143999994-129.13753429333323z" fill="#BCBBBB" p-id="52397"></path><path d="M366.4598791003654 677.8921745622911s-32.039819633145676 68.48064089758024-47.49634898299257 81.74992615095309c-3.3140076190024685 8.828514111841974-1.1002500841876706 131.446775302321-18.783791746212334 183.37063676586652 0 0 123.71851127466662-112.67623962800984 205.46843742561973-112.67623833347155-40.868335039525924-32.039819633145676-125.93226751494319-100.53371789716536-139.18829669641477-152.44432458334813z" fill="#FFFFFF" p-id="52398"></path><path d="M649.1513662577779 699.4385525570367s28.15999772444444 60.188063288888884 41.74483797333332 71.85052103111111c2.9243528533333327 7.759436231111111 0.9786675199999999 115.52939235555556 16.509191964444444 161.1655987199999 0 0-113.00116707555556-103.40090311111109-184.85168810666661-103.40090311111109 35.93108593777777-28.15999772444444 114.95850325333332-83.99065998222223 126.59765816888886-129.61521663999991z" fill="#BCBBBB" p-id="52399"></path><path d="M663.6335190167703 677.8921745622911s32.03981963314567 68.48064089758024 47.50960505489381 81.74992615095309c3.314007619002468 8.828514111841974 1.1002500841876706 131.446775302321 18.770535674311105 183.37063676586655 0 0-123.71851127466662-112.67623962800984-205.46843613108135-112.67623833347155 40.88159111142715-32.039819633145676 125.93226751494319-100.53371789716536 139.1882954018765-152.44432458334816z" fill="#FFFFFF" p-id="52400"></path></svg>